PathFileType	4	(X/Y/Z)	Kaydara	
DataRate	CameraRate	NumFrames	NumMarkers	Units	OrigDataRate	OrigDataStartFrame	OrigNumFrames	
120.00	120.00	4	72	mm	120.00	202	268	
Frame#	Time	Hips			RightUpLeg			RightLeg			RightFoot			RightFoot_End			LeftUpLeg			LeftLeg			LeftFoot			LeftFoot_End			Spine			Spine1			Spine2			Spine3			Neck			Head			Head_End			RightShoulder			RightArm			RightForeArm			RightHand			RightHandThumb1			RightHandThumb2			RightHandThumb3			RightHandThumb3_End			RightInHandIndex			RightHandIndex1			RightHandIndex2			RightHandIndex3			RightHandIndex3_End			RightInHandMiddle			RightHandMiddle1			RightHandMiddle2			RightHandMiddle3			RightHandMiddle3_End			RightInHandRing			RightHandRing1			RightHandRing2			RightHandRing3			RightHandRing3_End			RightInHandPinky			RightHandPinky1			RightHandPinky2			RightHandPinky3			RightHandPinky3_End			LeftShoulder			LeftArm			LeftForeArm			LeftHand			LeftHandThumb1			LeftHandThumb2			LeftHandThumb3			LeftHandThumb3_End			LeftInHandIndex			LeftHandIndex1			LeftHandIndex2			LeftHandIndex3			LeftHandIndex3_End			LeftInHandMiddle			LeftHandMiddle1			LeftHandMiddle2			LeftHandMiddle3			LeftHandMiddle3_End			LeftInHandRing			LeftHandRing1			LeftHandRing2			LeftHandRing3			LeftHandRing3_End			LeftInHandPinky			LeftHandPinky1			LeftHandPinky2			LeftHandPinky3			LeftHandPinky3_End			
		X1	Y1	Z1	X2	Y2	Z2	X3	Y3	Z3	X4	Y4	Z4	X5	Y5	Z5	X6	Y6	Z6	X7	Y7	Z7	X8	Y8	Z8	X9	Y9	Z9	X10	Y10	Z10	X11	Y11	Z11	X12	Y12	Z12	X13	Y13	Z13	X14	Y14	Z14	X15	Y15	Z15	X16	Y16	Z16	X17	Y17	Z17	X18	Y18	Z18	X19	Y19	Z19	X20	Y20	Z20	X21	Y21	Z21	X22	Y22	Z22	X23	Y23	Z23	X24	Y24	Z24	X25	Y25	Z25	X26	Y26	Z26	X27	Y27	Z27	X28	Y28	Z28	X29	Y29	Z29	X30	Y30	Z30	X31	Y31	Z31	X32	Y32	Z32	X33	Y33	Z33	X34	Y34	Z34	X35	Y35	Z35	X36	Y36	Z36	X37	Y37	Z37	X38	Y38	Z38	X39	Y39	Z39	X40	Y40	Z40	X41	Y41	Z41	X42	Y42	Z42	X43	Y43	Z43	X44	Y44	Z44	X45	Y45	Z45	X46	Y46	Z46	X47	Y47	Z47	X48	Y48	Z48	X49	Y49	Z49	X50	Y50	Z50	X51	Y51	Z51	X52	Y52	Z52	X53	Y53	Z53	X54	Y54	Z54	X55	Y55	Z55	X56	Y56	Z56	X57	Y57	Z57	X58	Y58	Z58	X59	Y59	Z59	X60	Y60	Z60	X61	Y61	Z61	X62	Y62	Z62	X63	Y63	Z63	X64	Y64	Z64	X65	Y65	Z65	X66	Y66	Z66	X67	Y67	Z67	X68	Y68	Z68	X69	Y69	Z69	X70	Y70	Z70	X71	Y71	Z71	X72	Y72	Z72	

202	1.675	4446.805	859.65103	-201.189	4481.654137179878	840.1260028630152	-239.47048209229362	4405.842583425476	435.8797313941067	-259.90264063790266	4505.127664494605	78.7535323200829	-402.89724450449955	4487.401537389309	-22.96218378107721	-272.03051190884787	4419.2249150230355	850.5678470937884	-149.41311709047238	4297.2336344313835	461.1562495891749	-58.444526111973865	4219.611159139076	80.60570952207652	89.19130954739113	4280.314464082112	21.280152474188576	257.24849222553945	4412.8636388475625	985.8165460850214	-257.8529765836398	4367.910033284253	1061.2901489927049	-298.3625330440627	4316.245698674059	1136.8263468543282	-340.1247175580389	4259.371252690037	1203.2812932081113	-379.8835927524792	4197.741818645934	1273.911000851347	-418.4885213689536	4151.923358646317	1346.3425232536254	-383.57070701525123	4129.779603575219	1439.5513909619822	-259.8304559422994	4223.960858566708	1251.1950069476975	-417.3561410732816	4255.743256854022	1244.4032648828804	-452.3203995013506	4339.637983692831	1095.0327026584446	-405.4585108958186	4400.65091933759	1093.9623037688543	-491.41672276112456	4418.785373074723	1123.8524137001073	-493.33072677434365	4430.603297851401	1139.7056023663856	-508.81783571595753	4438.176902595698	1146.7782028956806	-520.4044386551914	4443.929156011993	1149.2801806533682	-530.7492455569502	4418.839263321209	1112.9321360582155	-495.3104604129626	4440.983297653201	1124.7821702100443	-508.862167141432	4452.42408735026	1130.0374356307595	-524.0008199309344	4456.1744725306135	1133.975171704806	-534.8412859806084	4457.010658342863	1137.6867318578402	-544.7776921847827	4416.094558027918	1101.58638383796	-497.2897125585034	4436.20970302778	1107.00848672325	-511.5765907953445	4448.254936927368	1111.2038025884394	-528.3202038610181	4452.568993271543	1115.215911460872	-541.5064806941635	4453.38152655617	1118.9179551788206	-552.4310403763885	4413.630762491137	1093.2750135576077	-498.2922122949131	4429.637452924798	1090.9393025803568	-511.81999386090524	4439.655331244121	1093.0140952682846	-526.6211147443139	4443.561246114375	1096.0440364624699	-539.4504333326283	4444.204227020985	1099.1268095888058	-549.774448849685	4409.83115964374	1083.298871880444	-499.4491087236826	4422.312735682398	1075.032942840352	-512.4064526165616	4429.51448943342	1074.2366157987422	-524.5234713052822	4431.966721258688	1075.257774062898	-534.0093355061603	4432.307963515492	1077.3043868654636	-543.2284632782422	4212.345411547543	1251.8769797213763	-393.6055957201778	4196.1432408648725	1222.7940370119488	-355.06795648814676	4254.433296964606	1118.991237881596	-424.41985774888497	4328.597661510358	1093.4277891120278	-405.5865882726305	4333.2133822992055	1123.1183901922886	-414.7937822624658	4346.903901546815	1128.7638322785726	-425.29267687592	4355.936622223109	1129.2234336434792	-433.1220688453235	4363.03791316697	1126.636478830941	-440.09219097320965	4330.813600562078	1115.1570502989803	-417.71712800436273	4336.784762027177	1127.863598402078	-437.21648610642836	4346.420724050726	1127.30304352481	-449.6010564515389	4355.3647783452625	1123.6353683330067	-454.71505159155777	4364.759922148745	1118.3607438542963	-457.2039152879414	4329.502659475911	1104.8248824949826	-418.3908745833759	4334.616096851835	1111.6324777140476	-437.7747272843502	4344.945347986396	1109.604537578944	-451.3129279933246	4355.647017092007	1104.499988556885	-457.49436583315565	4365.883736305988	1098.3981918893019	-460.2232638236185	4328.36636420529	1097.2762690052691	-418.38857922107053	4331.7937089499255	1097.0448279774241	-435.81485667424647	4340.599704419556	1093.8181393682112	-447.60874583350653	4350.817692053173	1088.119505029322	-453.56801101765365	4360.393213988139	1082.0150729203779	-456.132331986438	4327.338583621493	1087.6146850953226	-417.66898731115845	4329.6566828024315	1081.7028873349664	-433.2796964975133	4336.386306760453	1076.8431180798277	-442.6382163311441	4343.683640826273	1071.5855537190268	-446.9435256893625	4352.07638220573	1065.544407754447	-449.19126844386483
203	1.683	4446.805	859.65103	-201.189	4481.178697535105	839.877582645128	-239.80849654876525	4406.955089568052	435.1631763845417	-259.397252405035	4506.344197295722	78.90119180264595	-404.7243658217125	4489.989599181057	-22.76609232034173	-273.0608021343025	4419.670072564405	850.7499134271316	-149.1769642107373	4297.981603972362	461.43212888456816	-57.53004503137391	4219.790245172592	81.0444786061089	90.05761120741141	4280.853091356194	21.33634625131472	257.81489276006556	4413.024386884001	986.1220371161621	-257.3868331777111	4368.130648845072	1061.727609856336	-297.76657892404216	4316.5375137055835	1137.4057327556095	-339.41582348605755	4259.736842604036	1204.0131919522946	-379.08561424200883	4198.023989893725	1274.5987644675838	-417.6352878352	4152.246914356241	1346.970285451188	-382.69844475888027	4129.765515019423	1440.1488217867393	-259.0159945254193	4224.09103935996	1251.6133196123376	-416.66959558946604	4255.026024705131	1243.1595977969257	-452.11646813080364	4335.6297746862965	1094.5613566656825	-401.9572750847689	4389.711156591714	1088.4314846685156	-486.0559389891327	4408.138946225301	1116.3405552764946	-489.5717676968658	4418.917970303894	1130.9504924015937	-506.1348081823795	4425.57338655419	1137.324315630647	-518.2240157218198	4430.393626605247	1139.3866376891024	-528.7767985789669	4407.593807049076	1105.7854188717145	-490.80878037133704	4428.236645869073	1116.0098989243402	-504.7820127572647	4438.248172477568	1120.4108211272799	-520.2429837267315	4441.173975512707	1123.9594760262237	-531.4679701003494	4441.37081858396	1127.4448196648025	-541.8468494925039	4404.353525285137	1094.963682686142	-492.10382342228763	4422.736501267204	1099.0836307002512	-506.4317482298404	4433.161123599276	1102.4214500369724	-523.4354636529305	4436.45107975131	1106.0000225035244	-537.041689686936	4436.5498257428935	1109.4719850345973	-548.4290237698578	4401.580246495246	1087.061968846926	-492.6103502584449	4415.772741280119	1083.9089004593552	-505.7390435191666	4424.3184432743965	1085.314784248318	-520.673190673035	4427.204857332015	1087.9682273867136	-533.8578347712371	4427.161687983097	1090.8544192791803	-544.5933996345447	4397.449056270885	1077.621166499987	-493.1977586396849	4408.069584991369	1068.9282162971458	-505.4319938502596	4414.007315593832	1067.7222824674632	-517.5111373209427	4415.674724439913	1068.5297865654888	-527.1863265965028	4415.384441883774	1070.4373464814284	-536.7298208667141	4212.868295238358	1252.873005949794	-392.6508810108203	4197.166617197981	1224.8481241031466	-353.0643086685501	4252.52801869077	1119.476073199093	-420.72508485404984	4321.483926367246	1090.1630819463933	-399.87311829267605	4324.85242552671	1118.4705645925821	-409.8414291231519	4338.763031991302	1123.6720104142685	-420.862627583515	4348.1851289773285	1123.9042013683447	-428.9005633525786	4355.813009474526	1121.1976326651627	-435.91177782225867	4323.096195375627	1110.5833503942831	-412.2609391362304	4329.403401248474	1121.9919277453193	-431.6530556526945	4339.745405983139	1121.0204221471229	-444.05569742278635	4349.169185483386	1117.4015829576342	-449.36654864591566	4358.988904090882	1112.3726552345865	-452.143557136354	4322.438175353879	1100.5422114678	-412.52073406846984	4328.232411272002	1106.2410829474354	-431.5760538795277	4339.41774618018	1103.807939931698	-445.07981781590905	4350.739287804271	1098.7830525891038	-451.4727679132943	4361.4605502411	1092.9601771910786	-454.5043149218403	4321.751409117357	1093.2276096912915	-412.2267418333019	4326.169792654731	1092.191853082838	-429.0995891561453	4335.808460895073	1088.657968527838	-440.80864942623043	4346.6703051402055	1083.0605935533113	-446.9428261485906	4356.7231893499265	1077.2299898860115	-449.77791998416006	4321.257084317805	1083.9105434324806	-411.1896349632132	4324.802455944995	1077.4571596610278	-426.09032558193695	4332.329515184998	1072.4266772129126	-435.29783044685865	4340.159686080873	1067.279386193321	-439.69052895737093	4349.011668801611	1061.5017642354962	-442.1550011745267
204	1.692	4446.805	859.65103	-201.189	4480.651034001755	839.616223347586	-240.13631206813722	4407.978910699002	434.46890136365073	-259.1803987952497	4507.229246580759	78.97927138997699	-406.735512494123	4492.524652964805	-22.67911109105302	-274.29378088220415	4420.153955770498	850.943364311404	-148.94826235823518	4298.651972680561	461.71030611488777	-56.81717719410322	4220.004328797131	81.48441999802719	90.83344787882844	4281.495992166041	21.51463688125724	258.3099401690658	4413.247298258131	986.4351573589126	-256.93326722033686	4368.414016146337	1062.172657996643	-297.1847309672076	4316.886118882547	1137.988976196499	-338.72257101475014	4260.147638503851	1204.7403463985888	-378.3064675167611	4198.352654647368	1275.2998952190767	-416.792192634674	4152.667696734048	1347.6653256711832	-381.8137465682195	4129.928494655099	1440.8473201814018	-258.1872478146209	4224.266128417393	1252.0680844263713	-415.9772386432878	4254.2994849450615	1242.1186652565407	-451.85281919645246	4331.979409150446	1094.4709957704158	-398.5290123832648	4379.032592879893	1083.972239889248	-479.84223428877283	4397.420616710042	1109.887288337969	-484.8212487571534	4406.966761913853	1123.3637858996367	-502.2323204582044	4412.609444681925	1129.1360104236096	-514.6619839758612	4416.453535453607	1130.8574032751885	-525.2846247850136	4396.385430454757	1099.7649375055428	-485.29587551398606	4415.359985428725	1108.5475392855537	-499.4126303216432	4423.856878506952	1112.2507192284709	-514.9737075032722	4425.901930230099	1115.4923303536707	-526.4536579561777	4425.410851990191	1118.8090252126074	-537.1735728217658	4392.767122917097	1089.5185079704938	-485.90566615978	4409.318531430205	1092.5431877477363	-500.00292544450724	4418.0454771905415	1095.200601209484	-517.0249938607667	4420.251288726859	1098.4475913968754	-530.8952136943518	4419.586847479935	1101.7539104490322	-542.6345009683646	4389.771592272925	1082.057879797049	-485.9227913202244	4402.136293580931	1078.299796661742	-498.415218734788	4409.159253448268	1079.1971447828616	-513.272852642858	4410.977066880747	1081.5756297802905	-526.6630122118878	4410.205477588409	1084.3273429904252	-537.7062211040088	4385.4148406277645	1073.1842674823483	-485.9546526439301	4394.226885652749	1064.2783469615206	-497.25746458347317	4398.886066314732	1062.7996944767588	-509.13379954972413	4399.745398621838	1063.4717039493798	-518.89042456082	4398.793375438548	1065.2975810521632	-528.6670377833852	4213.436421162777	1253.8438103801432	-391.7257506452164	4198.270272961587	1226.860184400342	-351.1569040710546	4250.896392489733	1120.1008892254126	-416.91639829664706	4315.209684641179	1087.7083665102414	-393.92802574682884	4317.385909781848	1114.5497097599462	-404.41911113387806	4331.437257699408	1119.2939072251693	-415.9567957771075	4341.1923142520545	1119.3119169764263	-424.23404207292907	4349.298759540067	1116.515975097417	-431.34178415731026	4316.288467299982	1106.8089073447427	-406.422046901911	4322.972503333193	1116.9890159912231	-425.67310775238826	4333.972260701609	1115.6581443242007	-438.1540731779954	4343.801438028655	1112.098290369195	-443.7194894641021	4353.95432508816	1107.3086737851982	-446.84606763976143	4316.275148604124	1097.117613148954	-406.3677496434515	4322.785540033111	1101.807363591013	-425.1155455441358	4334.772952144634	1099.032845864909	-438.6640103726879	4346.624062902909	1094.103482790954	-445.3445222040947	4357.72954716033	1088.554300390392	-448.74905211894406	4316.031842441069	1090.0769307457772	-405.85284433188104	4321.469962774494	1088.3611397470117	-422.2506923489357	4331.892825395064	1084.5832395291304	-433.9575608313626	4343.310674677087	1079.1064327759482	-440.34725925725377	4353.7462398992	1073.5466408834232	-443.5226952521072	4316.056659796467	1081.1473563637408	-404.58574605915067	4320.849428487563	1074.2933218558633	-418.90018789637077	4329.132778920848	1069.1539504774225	-428.0438248104408	4337.4305829831765	1064.1364499988388	-432.5928559812548	4346.657287699143	1058.622806717821	-435.34152395330455
205	1.7	4446.805	859.65103	-201.189	4480.075189260265	839.3451796234917	-240.4482174707959	4408.877669122729	433.8120932314735	-259.27355498013833	4507.759300217605	78.98258753434969	-408.88768409141744	4494.9583291301715	-22.713741028864916	-275.7176014602416	4420.673399028256	851.1469708456549	-148.72964609990018	4299.22661608822	461.9856492663749	-56.341571028934595	4220.250037388001	81.91351594586699	91.47732727977444	4282.231186374818	21.815629074281173	258.7006104195078	4413.528303759488	986.7468486604622	-256.5060706676466	4368.755269579885	1062.6135826926707	-296.6336863449339	4317.285678860357	1138.561786804716	-338.06405165494834	4260.596515402505	1205.4455856999168	-377.567138907031	4198.72516837874	1276.0017776223876	-415.9805935377965	4153.180674874674	1348.4176973861947	-380.9415664791813	4130.276924127799	1441.6426760393626	-257.37050785626593	4224.484738905635	1252.5514454825484	-415.29565162868073	4253.575937268357	1241.3140151561452	-451.52864345653853	4328.796773106477	1094.775433913285	-395.27120587245906	4368.914006779547	1080.7945663125936	-472.895097735051	4386.90808630717	1104.766677777535	-479.13859734134746	4395.056184713554	1117.2640199481446	-497.12408127136246	4399.618890088273	1122.5581085803008	-509.7082607662512	4402.471646986103	1124.0552017496966	-520.2496917735009	4385.51294691827	1095.1353322646976	-478.8548320483624	4402.691586718553	1102.719381024989	-492.80992130604625	4409.631421815338	1105.914937914435	-508.2282511296906	4410.765796473855	1108.947182943006	-519.8153847645135	4409.55963234143	1112.1622360207455	-530.7561758666363	4381.65321223805	1085.500298177255	-478.80107806965265	4396.322438631126	1087.6865562157034	-492.3817511242207	4403.323910135062	1089.8750201987314	-509.1609870528758	4404.418348267038	1092.9101914677906	-523.1187396987929	4402.965311607022	1096.1251176143628	-535.0793946137148	4378.535009539626	1078.499985006797	-478.35220482764663	4389.112460135482	1074.3835959675555	-489.9732558393727	4394.607435740519	1074.96039739724	-504.5310742882388	4395.340467034656	1077.1814011962663	-517.9588476513424	4393.821345912198	1079.8693765311134	-529.1880115307715	4374.072615788837	1070.2091328725276	-477.86213784817085	4381.186633575558	1061.3260050243487	-488.03944730997864	4384.5925119777385	1059.7298384827918	-499.5419682225331	4384.646208820469	1060.3543005723752	-509.2613372544057	4383.023712293954	1062.1624599174143	-519.1654459981725	4214.0421907111	1254.7686052979093	-390.85556565857314	4199.441945992541	1228.7881306872705	-349.40761597641955	4249.611836863315	1120.8709217065182	-413.08000998857506	4310.040214087855	1086.1998845814273	-387.92552540858327	4311.117843327422	1111.530102392326	-398.6721367952753	4325.221507556745	1115.81492784642	-410.7046681258692	4335.239855816158	1115.6381759631743	-419.24633616026	4343.759867360558	1112.7869281377975	-426.505914195522	4310.6762624717385	1104.0087901956254	-400.3623888493823	4317.770136760144	1113.070956820862	-419.43946195685623	4329.357277244817	1111.4453994208727	-432.0593136331554	4339.500896926686	1107.952426035966	-437.9325934031892	4349.879825983143	1103.386857386572	-441.4634103188555	4311.280060241951	1094.7197526148252	-400.1083998246051	4318.523908165392	1098.5365393830523	-418.57840635317814	4331.232747109515	1095.497767731232	-432.252963800893	4343.501838377483	1090.6765936743263	-439.29268479254466	4354.873427328952	1085.38592963107	-443.1335862376292	4311.460784593367	1087.9874808309523	-399.45365420829035	4317.919918113289	1085.744448220046	-415.47179728531177	4329.052693822483	1081.796219795615	-427.2630192963308	4340.916795077276	1076.4556326513366	-433.9856355997875	4351.6229783192675	1071.1540122765643	-437.56494182323934	4311.974292783701	1079.4797211817743	-398.0556193342565	4317.9998915697	1072.3873213259267	-411.9302871398784	4326.973820603431	1067.207490592823	-421.10329101243923	4335.656189456472	1062.3357552863538	-425.87668511305446	4345.156611862589	1057.0775169738547	-428.9724871992919
